<svg width="26" height="26" viewBox="0 0 26 26" fill="none" xmlns="http://www.w3.org/2000/svg">
<circle cx="12.5" cy="7.5" r="4.6" stroke="#226756" stroke-width="1.8"/>
<path d="M20.1 17.5001C20.1 19.2004 19.3122 20.5668 17.9806 21.5366C16.6286 22.5213 14.701 23.1001 12.5 23.1001C10.299 23.1001 8.37144 22.5213 7.01945 21.5366C5.68781 20.5668 4.9 19.2004 4.9 17.5001C4.9 17.1441 5.01734 16.9315 5.23755 16.7516C5.50214 16.5353 5.95739 16.339 6.66878 16.1945C8.09743 15.9042 10.1155 15.9 12.5 15.9C14.8845 15.9 16.9026 15.9042 18.3312 16.1945C19.0426 16.339 19.4979 16.5353 19.7625 16.7516C19.9827 16.9315 20.1 17.1441 20.1 17.5001Z" stroke="#226756" stroke-width="1.8"/>
</svg>
