<svg width="26" height="26" viewBox="0 0 26 26" fill="none" xmlns="http://www.w3.org/2000/svg">
<path d="M17.3361 22.7693C15.9527 22.9527 14.4014 23.1 13 23.1C11.5986 23.1 10.0473 22.9527 8.66393 22.7693C6.68527 22.5069 5.17484 20.957 5.00755 18.9952C4.87998 17.4993 4.83938 15.8918 5.03477 14.6387C5.30016 12.9366 5.89803 10.8635 6.44091 9.19131C6.94063 7.65206 8.21244 6.51769 9.7787 6.24442C10.8784 6.05256 12.0576 5.9 13 5.9C13.9424 5.9 15.1216 6.05256 16.2213 6.24442C17.7876 6.51769 19.0594 7.65206 19.5591 9.19131C20.102 10.8635 20.6998 12.9366 20.9652 14.6387C21.1606 15.8918 21.12 17.4993 20.9925 18.9952C20.8252 20.957 19.3147 22.5069 17.3361 22.7693Z" stroke="#226756" stroke-width="1.8"/>
<path d="M10.2 8.71087C9.45946 8.00033 9 7.01018 9 5.915C9 3.75281 10.7909 2 13 2C15.2091 2 17 3.75281 17 5.915C17 7.01018 16.5405 8.00033 15.8 8.71087" stroke="#226756" stroke-width="1.8" stroke-linecap="round"/>
</svg>
